<svg xmlns="http://www.w3.org/2000/svg" viewBox="0 0 575 722"><defs><style>.a{fill:#fc0;}.b{fill:none;}.b,.c,.d{stroke:#000;stroke-miterlimit:10;}.c{fill:aqua;}.d{fill:lime;}</style></defs><title>ChaCha Cipher Quarter Round Function</title><rect class="a" x="53.5" y="108.5" width="35" height="35"/><path d="M88,109v34H54V109H88m1-1H53v36H89V108Z"/><line class="b" x1="53.5" y1="126" x2="88.5" y2="126"/><line class="b" x1="71" y1="108.5" x2="71" y2="143.5"/><line class="b" x1="71" y1="36" x2="71" y2="102.03"/><polygon points="67.3 99.22 71 100.8 74.7 99.22 71 108 67.3 99.22"/><path d="M90.81,51.05a5.65,5.65,0,0,1-3.33,2.45c-.67,0-1-.55-.53-2.74l.34-1.65a13.53,13.53,0,0,1-2.88,3.24,4.42,4.42,0,0,1-2.48,1.15c-.84,0-1.53-1-1.53-3a8.87,8.87,0,0,1,2.66-6.24,7.07,7.07,0,0,1,4.59-1.89,15.8,15.8,0,0,1,2.78.41C90,44.31,89.16,48,88.7,50.72c-.12.67-.07.93.12.93s.79-.31,1.66-1.2Zm-4.34-2a8.4,8.4,0,0,0,1.39-2.88,21,21,0,0,0,.53-2.35,4.79,4.79,0,0,0-1.82-.39c-2.84,0-4.16,3.65-4.16,6.77,0,1,.27,1.59.75,1.59C83.9,51.8,85,51.05,86.47,49.06Z"/><line class="b" x1="215" y1="36" x2="215.49" y2="281.53"/><polygon points="211.78 278.73 215.49 280.3 219.19 278.71 215.5 287.5 211.78 278.73"/><circle class="c" cx="215.5" cy="306" r="18"/><line class="b" x1="215.5" y1="288" x2="215.5" y2="324"/><line class="b" x1="197.5" y1="306" x2="233.5" y2="306"/><rect class="a" x="341.5" y="252.5" width="35" height="35"/><path d="M376,253v34H342V253h34m1-1H341v36h36V252Z"/><line class="b" x1="341.5" y1="270" x2="376.5" y2="270"/><line class="b" x1="359" y1="252.5" x2="359" y2="287.5"/><line class="b" x1="358.75" y1="35.5" x2="359.24" y2="246.53"/><polygon points="355.53 243.73 359.23 245.29 362.93 243.71 359.25 252.5 355.53 243.73"/><path d="M225.88,36.41a15.81,15.81,0,0,0,2.93-.6,2.22,2.22,0,0,1,.72-.2c.22,0,.24.24.12.75-.81,3.24-1.46,6.26-2.11,9.19,1.78-2.28,3.82-3.5,5.23-3.5s1.73,1.58,1.73,2.64a9,9,0,0,1-3.77,7.15,6.72,6.72,0,0,1-3.57,1.32,2.06,2.06,0,0,1-1.59-.65c-.5-.53-.89-1.46-.41-3.86.68-3.34,1.47-6.82,2.21-10.47.19-1,0-1-.69-1.08-.27,0-.7-.05-.94-.05Zm6.63,8.64c0-.87-.24-1.59-1-1.59s-2,.7-3.48,2.62a5.73,5.73,0,0,0-1.18,2.83c-.38,2.33.34,3.14,1.39,3.14C230.8,52.05,232.51,47.61,232.51,45.05Z"/><path d="M375.1,50.52a6.72,6.72,0,0,1-4.85,2.64c-1.61,0-2.71-1.27-2.71-3.55A8,8,0,0,1,370,43.85a6.34,6.34,0,0,1,3.81-1.8c1.06,0,1.85.55,1.88,1.1a1.4,1.4,0,0,1-.82,1.25.41.41,0,0,1-.55-.15,2.28,2.28,0,0,0-1.83-1c-1.82,0-2.92,3-2.92,5.86,0,1.75.67,2.64,1.77,2.64a5.59,5.59,0,0,0,3.41-1.83Z"/><circle class="c" cx="502.9" cy="180.33" r="18"/><line class="b" x1="502.9" y1="162.33" x2="502.9" y2="198.33"/><line class="b" x1="484.9" y1="180.33" x2="520.9" y2="180.33"/><line class="b" x1="71.25" y1="144" x2="71.74" y2="372.53"/><polygon points="68.03 369.73 71.73 371.3 75.43 369.71 71.75 378.5 68.03 369.73"/><rect class="a" x="54" y="378.5" width="35" height="35"/><path d="M88.5,379v34h-34V379h34m1-1h-36v36h36V378Z"/><line class="b" x1="54" y1="396" x2="89" y2="396"/><line class="b" x1="71.5" y1="378.5" x2="71.5" y2="413.5"/><line class="b" x1="71.07" y1="180.5" x2="478.53" y2="180.5"/><path d="M71.26,184.26A3.76,3.76,0,1,1,75,180.5,3.76,3.76,0,0,1,71.26,184.26Z"/><polygon points="475.72 184.2 477.3 180.5 475.72 176.8 484.5 180.5 475.72 184.2"/><line class="b" x1="215.43" y1="125.5" x2="93.97" y2="125.5"/><path d="M215.24,121.74a3.76,3.76,0,1,1-3.76,3.76A3.76,3.76,0,0,1,215.24,121.74Z"/><polygon points="96.78 121.8 95.2 125.5 96.78 129.2 88 125.5 96.78 121.8"/><line class="b" x1="503" y1="36" x2="503" y2="156.53"/><polygon points="499.3 153.72 503 155.29 506.7 153.72 503 162.5 499.3 153.72"/><path d="M524.65,50.78a5.8,5.8,0,0,1-3.36,2.4c-.7,0-1-.57-.53-2.85l.29-1.35c-1.39,2-3.65,4.2-5.35,4.2-.94,0-1.83-.84-1.83-3.09a8.72,8.72,0,0,1,2.81-6.32,7.42,7.42,0,0,1,4-1.7,4.28,4.28,0,0,1,1.75.31l.84-4.13c.19-1,0-1-.86-1.12-.24,0-.75-.05-.92-.05l.15-.65a16.94,16.94,0,0,0,3.05-.62,3.56,3.56,0,0,1,.69-.17c.19,0,.24.21.12.72-1.1,4.73-2.23,9.72-3,14.16-.12.65,0,.91.15.91s.89-.36,1.75-1.27Zm-4.13-2.3a6.65,6.65,0,0,0,1.13-2.55l.48-2.06a3.19,3.19,0,0,0-2.31-.74c-2.76,0-3.93,4-3.93,6.43,0,1.34.36,2,1,2C517.88,51.6,519.3,50.25,520.52,48.48Z"/><line class="b" x1="215.5" y1="324" x2="215.5" y2="336.03"/><polygon points="211.8 333.22 215.5 334.8 219.2 333.22 215.5 342 211.8 333.22"/><rect class="d" x="179.5" y="342.5" width="72" height="35.5"/><path d="M194.87,345.68v3.14l-10.36,4.91,10.36,4.91v3.12l-13.72-6.7v-2.69Z"/><path d="M212.15,345.68v3.14l-10.36,4.91,10.36,4.91v3.12l-13.72-6.7v-2.69Z"/><path d="M229.44,345.68v3.14l-10.37,4.91,10.37,4.91v3.12l-13.73-6.7v-2.69Z"/><path d="M233.82,373.28v-.48c1.75-.1,1.85-.2,1.85-1.39v-6.09c0-.81-.14-.85-.84-.92l-.73-.08v-.42a14,14,0,0,0,3.05-.79v8.3c0,1.21.09,1.29,1.86,1.39v.48Z"/><path d="M247.51,371.05c-.22.75-.5,1.62-.66,2.23h-6.11v-.4c.88-.85,1.83-1.8,2.62-2.71a6.3,6.3,0,0,0,1.93-3.83c0-1.29-.68-2-1.83-2a2.81,2.81,0,0,0-2.21,1.47l-.38-.34.93-1.34a2.92,2.92,0,0,1,2.24-1,2.65,2.65,0,0,1,2.76,2.79c0,1.34-.49,2.29-2,3.83-.67.7-1.66,1.65-2.33,2.28h3c.89,0,1.12-.08,1.67-1.09Z"/><rect class="d" x="466.55" y="215.6" width="72" height="35.5"/><path d="M481.92,218.78v3.15l-10.37,4.91,10.37,4.91v3.11l-13.73-6.7v-2.69Z"/><path d="M499.2,218.78v3.15l-10.36,4.91,10.36,4.91v3.11l-13.73-6.7v-2.69Z"/><path d="M516.48,218.78v3.15l-10.36,4.91,10.36,4.91v3.11l-13.73-6.7v-2.69Z"/><path d="M520.87,246.38v-.47c1.75-.11,1.85-.21,1.85-1.4v-6.08c0-.82-.14-.86-.84-.92l-.73-.08V237a13.9,13.9,0,0,0,3-.78v8.29c0,1.21.1,1.29,1.86,1.4v.47Z"/><path d="M530.66,240.33a2.31,2.31,0,0,1,1-.28,2.85,2.85,0,0,1,2.89,3,3.41,3.41,0,0,1-3.37,3.55c-1.92,0-3.38-1.55-3.38-4a6.5,6.5,0,0,1,4.41-6,15.62,15.62,0,0,1,1.91-.43l.1.55a9.72,9.72,0,0,0-1.74.55,5,5,0,0,0-2.88,3.62Zm.33.67a3.15,3.15,0,0,0-1.46.4,6.08,6.08,0,0,0-.1,1.13c0,2,.75,3.45,2.05,3.45s1.56-1.3,1.56-2.36C533,242.25,532.38,241,531,241Z"/><line class="b" x1="503" y1="198.5" x2="503" y2="209.53"/><polygon points="499.3 206.72 503 208.29 506.7 206.72 503 215.5 499.3 206.72"/><line class="b" x1="503" y1="251" x2="503" y2="425.53"/><polygon points="499.3 422.72 503 424.3 506.7 422.72 503 431.5 499.3 422.72"/><line class="b" x1="502.93" y1="270" x2="382.47" y2="270"/><path d="M502.74,266.24A3.76,3.76,0,1,1,499,270,3.76,3.76,0,0,1,502.74,266.24Z"/><polygon points="385.28 266.3 383.7 270 385.28 273.7 376.5 270 385.28 266.3"/><line class="b" x1="359" y1="287" x2="359" y2="515.53"/><polygon points="355.3 512.72 359 514.29 362.7 512.72 359 521.5 355.3 512.72"/><line class="b" x1="358.93" y1="306" x2="239.47" y2="306"/><path d="M358.74,302.24A3.76,3.76,0,1,1,355,306,3.76,3.76,0,0,1,358.74,302.24Z"/><polygon points="242.28 302.3 240.71 306 242.28 309.7 233.5 306 242.28 302.3"/><line class="b" x1="215.93" y1="395.5" x2="94.47" y2="395.5"/><path d="M215.74,391.74A3.76,3.76,0,1,1,212,395.5,3.76,3.76,0,0,1,215.74,391.74Z"/><polygon points="97.28 391.8 95.7 395.5 97.28 399.2 88.5 395.5 97.28 391.8"/><line class="b" x1="70.93" y1="414.41" x2="71.49" y2="678.53"/><polygon points="67.78 675.73 71.48 677.29 75.19 675.71 71.5 684.5 67.78 675.73"/><line class="b" x1="70.57" y1="450" x2="479.03" y2="450"/><path d="M70.76,453.76A3.76,3.76,0,1,1,74.52,450,3.76,3.76,0,0,1,70.76,453.76Z"/><polygon points="476.22 453.7 477.8 450 476.22 446.3 485 450 476.22 453.7"/><circle class="c" cx="503" cy="450" r="18"/><line class="b" x1="503" y1="432" x2="503" y2="468"/><line class="b" x1="485" y1="450" x2="521" y2="450"/><line class="b" x1="503" y1="468.5" x2="503" y2="479.53"/><polygon points="499.3 476.72 503 478.3 506.7 476.72 503 485.5 499.3 476.72"/><line class="b" x1="215.5" y1="377.95" x2="215.5" y2="550.58"/><polygon points="211.8 547.77 215.5 549.34 219.2 547.77 215.5 556.55 211.8 547.77"/><rect class="d" x="467" y="485.57" width="72" height="35.5"/><path d="M482.37,488.75v3.14L472,496.8l10.36,4.91v3.12l-13.72-6.7v-2.7Z"/><path d="M499.65,488.75v3.14l-10.36,4.91,10.36,4.91v3.12l-13.72-6.7v-2.7Z"/><path d="M516.94,488.75v3.14l-10.37,4.91,10.37,4.91v3.12l-13.73-6.7v-2.7Z"/><path d="M527.64,506.18a2.48,2.48,0,0,1,2.67,2.39,1.87,1.87,0,0,1-.46,1.28,12,12,0,0,1-1.3,1c1.11.61,2.18,1.38,2.18,2.77a3.11,3.11,0,0,1-3.28,2.93c-1.85,0-3.16-1-3.16-2.66a1.89,1.89,0,0,1,.72-1.56,15.32,15.32,0,0,1,1.45-1,2.93,2.93,0,0,1-1.77-2.51A2.75,2.75,0,0,1,527.64,506.18Zm0,9.79a1.61,1.61,0,0,0,1.67-1.83c0-1.25-1-1.86-2.36-2.52a2.4,2.4,0,0,0-1.26,2.14A2,2,0,0,0,527.64,516Zm-.21-9.24a1.43,1.43,0,0,0-1.41,1.61c0,1.15.78,1.59,2,2.24a2.27,2.27,0,0,0,1-1.94C529,507.29,528.23,506.73,527.43,506.73Z"/><rect class="a" x="341.5" y="522" width="35" height="35"/><path d="M376,522.5v34H342v-34h34m1-1H341v36h36v-36Z"/><line class="b" x1="341.5" y1="539.5" x2="376.5" y2="539.5"/><line class="b" x1="359" y1="522" x2="359" y2="557"/><line class="b" x1="503.18" y1="539.5" x2="381.22" y2="539.5"/><path d="M503,535.74a3.76,3.76,0,1,1-3.76,3.76A3.76,3.76,0,0,1,503,535.74Z"/><polygon points="384.03 535.8 382.45 539.5 384.03 543.2 375.25 539.5 384.03 535.8"/><line class="b" x1="358.75" y1="557.05" x2="359.23" y2="678.08"/><polygon points="355.51 675.28 359.22 676.84 362.92 675.25 359.25 684.05 355.51 675.28"/><line class="b" x1="503" y1="521" x2="503" y2="678.03"/><polygon points="499.3 675.22 503 676.79 506.7 675.22 503 684 499.3 675.22"/><circle class="c" cx="215.5" cy="575.05" r="18"/><line class="b" x1="215.5" y1="557.05" x2="215.5" y2="593.05"/><line class="b" x1="197.5" y1="575.05" x2="233.5" y2="575.05"/><line class="b" x1="358.93" y1="575.55" x2="238.47" y2="575.55"/><path d="M358.74,571.79a3.76,3.76,0,1,1-3.76,3.76A3.76,3.76,0,0,1,358.74,571.79Z"/><polygon points="241.28 571.84 239.71 575.55 241.28 579.25 232.5 575.55 241.28 571.84"/><rect class="d" x="180.73" y="611.11" width="72" height="35.5"/><path d="M196.1,614.29v3.15l-10.36,4.91,10.36,4.9v3.12l-13.73-6.7V621Z"/><path d="M213.38,614.29v3.15L203,622.35l10.36,4.9v3.12l-13.72-6.7V621Z"/><path d="M230.66,614.29v3.15l-10.36,4.91,10.36,4.9v3.12l-13.72-6.7V621Z"/><path d="M244.76,632.13c-1.54,3.25-3,6.48-4.58,9.79L239,642l-.12-.18a90.87,90.87,0,0,0,4.7-8.66h-3.41c-1.05,0-1.13.14-1.56,1.18H238c.17-1,.25-1.77.33-2.46h6.29Z"/><line class="b" x1="215.5" y1="592.55" x2="215.5" y2="605.58"/><polygon points="211.8 602.77 215.5 604.34 219.2 602.77 215.5 611.55 211.8 602.77"/><line class="b" x1="215" y1="646.55" x2="215" y2="677.58"/><polygon points="211.3 674.77 215 676.34 218.7 674.77 215 683.55 211.3 674.77"/></svg>